{"glyphs":{"0":{"ha":850,"x_min":35,"x_max":817,"o":"m 310 486 q 344 568 310 533 q 426 603 379 603 q 508 568 474 603 q 543 486 543 533 q 508 404 543 439 q 426 369 474 369 q 344 404 379 369 q 310 486 310 439 m 90 594 q 239 896 133 800 q 522 992 344 992 q 647 968 592 992 q 739 903 701 944 q 797 807 776 863 q 817 688 817 751 q 807 594 817 639 l 761 378 q 613 76 718 172 q 329 -19 507 -19 q 205 4 260 -19 q 113 69 150 28 q 55 165 75 110 q 35 285 35 221 q 44 378 35 333 l 90 594 m 357 147 q 501 206 449 147 q 572 356 553 264 l 626 606 q 635 676 635 643 q 600 785 635 744 q 494 825 565 825 q 351 767 403 825 q 279 617 299 708 l 225 367 q 217 296 217 329 q 251 188 217 228 q 357 147 286 147 z "},"1":{"ha":850,"x_min":19,"x_max":718,"o":"m 294 175 l 444 881 l 419 881 l 257 547 l 74 547 l 74 564 l 289 972 l 647 972 l 478 175 l 718 175 l 718 0 l 19 0 l 19 175 l 294 175 z "},"2":{"ha":850,"x_min":-11,"x_max":832,"o":"m 692 175 l 692 0 l -11 0 l 29 192 q 80 330 46 274 q 163 423 114 386 q 278 481 213 460 q 424 517 343 503 q 505 537 465 524 q 576 571 544 550 q 626 624 607 592 q 644 700 644 656 q 610 785 644 753 q 508 817 575 817 q 372 769 426 817 q 299 636 317 721 l 286 575 l 103 575 l 119 653 q 259 903 154 814 q 533 992 364 992 q 658 970 603 992 q 752 912 714 949 q 811 826 790 875 q 832 725 832 778 q 738 484 832 574 q 475 358 644 394 q 353 326 400 343 q 278 290 306 310 q 237 247 250 271 q 215 192 224 222 l 211 175 l 692 175 z "},"3":{"ha":850,"x_min":33,"x_max":779,"o":"m 339 417 l 339 706 l 629 772 l 629 797 l 185 797 l 185 972 l 779 972 l 779 667 l 475 592 l 475 567 l 507 567 q 595 551 553 567 q 671 506 638 536 q 724 429 704 475 q 744 322 744 383 q 717 183 744 246 q 638 76 689 121 q 515 6 588 31 q 353 -19 442 -19 q 222 1 281 -19 q 121 60 163 22 q 56 149 79 97 q 33 261 33 200 q 42 335 33 297 l 49 369 l 232 369 l 226 340 q 222 313 224 324 q 221 292 221 303 q 259 192 221 229 q 372 156 297 156 q 503 194 451 156 q 554 303 554 232 q 519 386 554 356 q 422 417 483 417 l 339 417 z "},"4":{"ha":850,"x_min":15,"x_max":789,"o":"m 436 972 l 789 972 l 658 358 l 781 358 l 781 183 l 621 183 l 582 0 l 399 0 l 438 183 l 15 183 l 15 442 l 436 972 m 169 383 l 169 358 l 475 358 l 586 881 l 561 881 l 169 383 z "},"5":{"ha":850,"x_min":18,"x_max":804,"o":"m 68 433 l 182 972 l 804 972 l 804 797 l 329 797 l 272 533 l 297 533 q 382 631 328 594 q 526 667 436 667 q 628 647 582 667 q 707 592 674 628 q 758 506 740 557 q 776 390 776 454 q 748 232 776 307 q 665 101 719 157 q 531 13 611 46 q 349 -19 451 -19 q 213 0 274 -19 q 108 54 151 19 q 42 138 65 89 q 18 246 18 188 q 25 308 18 274 l 32 342 l 215 342 l 211 322 q 207 301 208 308 q 206 282 206 293 q 247 191 206 226 q 376 156 289 156 q 461 171 422 156 q 528 213 500 186 q 571 276 556 240 q 586 356 586 313 q 553 460 586 429 q 469 492 519 492 q 405 474 429 492 q 368 433 381 457 l 68 433 z "},"6":{"ha":850,"x_min":43,"x_max":807,"o":"m 619 697 q 621 708 621 704 q 621 717 621 711 q 592 786 621 756 q 499 817 564 817 q 367 773 415 817 q 303 658 318 729 l 276 533 l 301 533 q 387 615 333 588 q 501 642 440 642 q 598 624 553 642 q 677 572 643 606 q 731 490 711 539 q 750 378 750 440 q 724 224 750 296 q 647 97 697 151 q 520 12 596 43 q 346 -19 444 -19 q 224 -1 279 -19 q 128 53 168 18 q 65 138 88 88 q 43 253 43 189 q 51 335 43 290 l 124 682 q 172 808 138 751 q 256 906 206 865 q 369 969 306 947 q 508 992 433 992 q 638 972 582 992 q 731 919 693 953 q 788 840 768 885 q 807 744 807 794 q 803 697 807 722 l 619 697 m 374 156 q 439 167 406 156 q 499 200 472 178 q 542 256 525 222 q 558 336 558 290 q 521 428 558 390 q 413 467 483 467 q 338 454 372 467 q 279 419 304 442 q 240 362 254 396 q 225 285 225 328 q 267 189 225 222 q 374 156 308 156 z "},"7":{"ha":850,"x_min":54,"x_max":842,"o":"m 149 972 l 842 972 l 842 696 l 369 172 q 310 101 332 132 q 281 33 289 71 l 274 0 l 54 0 l 63 42 q 75 88 68 67 q 96 131 82 108 q 131 179 110 153 q 185 242 151 206 l 661 772 l 661 797 l 149 797 l 149 972 z "},"8":{"ha":850,"x_min":15,"x_max":813,"o":"m 336 -19 q 197 1 257 -19 q 97 57 138 22 q 36 138 57 92 q 15 235 15 183 q 79 406 15 339 q 249 492 143 472 l 249 517 q 211 540 231 526 q 176 575 192 554 q 151 625 161 596 q 140 694 140 654 q 169 817 140 763 q 247 911 197 872 q 365 971 297 950 q 513 992 433 992 q 624 977 569 992 q 719 933 678 963 q 787 858 761 904 q 813 750 813 813 q 754 595 813 654 q 607 517 696 536 l 607 492 q 700 424 663 471 q 738 294 738 376 q 712 170 738 228 q 635 71 686 113 q 508 5 583 29 q 336 -19 433 -19 m 356 156 q 433 165 397 156 q 497 192 469 174 q 540 238 524 210 q 556 304 556 267 q 517 383 556 350 q 400 417 479 417 q 328 407 363 417 q 267 378 293 397 q 224 331 240 360 q 208 264 208 303 q 247 187 208 218 q 356 156 285 156 m 492 817 q 428 809 458 817 q 374 785 397 801 q 336 744 350 768 q 322 686 322 719 q 356 619 322 646 q 447 592 390 592 q 512 600 481 592 q 567 624 543 608 q 606 664 592 640 q 619 718 619 688 q 585 790 619 763 q 492 817 550 817 z "},"9":{"ha":850,"x_min":43,"x_max":807,"o":"m 231 275 q 228 251 228 264 q 256 184 228 213 q 351 156 285 156 q 483 199 435 156 q 547 314 532 243 l 574 439 l 549 439 q 351 331 499 331 q 259 348 304 331 q 178 399 214 365 q 122 483 143 432 q 100 600 100 533 q 127 756 100 685 q 206 880 154 828 q 332 962 257 932 q 501 992 407 992 q 623 972 567 992 q 720 915 679 951 q 784 826 761 878 q 807 711 807 774 q 805 676 807 693 q 799 638 803 660 l 726 290 q 678 162 711 219 q 597 64 646 104 q 483 2 547 24 q 342 -19 418 -19 q 213 -1 268 -19 q 119 51 157 18 q 63 129 82 85 q 43 225 43 174 q 47 275 43 250 l 231 275 m 479 817 q 410 806 443 817 q 350 772 376 794 q 308 715 324 749 q 292 636 292 682 q 328 543 292 581 q 435 506 365 506 q 508 519 474 506 q 569 556 543 532 q 610 614 594 581 q 625 688 625 647 q 583 784 625 751 q 479 817 542 817 z "},"\u0000":{"ha":850,"x_min":0,"x_max":0,"o":""}," ":{"ha":850,"x_min":0,"x_max":0,"o":""},"A":{"ha":850,"x_min":-67,"x_max":724,"o":"m 539 208 l 218 208 l 129 0 l -67 0 l 361 972 l 700 972 l 724 0 l 542 0 l 539 208 m 292 383 l 536 383 l 529 881 l 504 881 l 292 383 z "},"B":{"ha":850,"x_min":3,"x_max":821,"o":"m 3 175 l 94 175 l 226 797 l 135 797 l 135 972 l 550 972 q 671 955 619 972 q 756 907 722 938 q 805 835 789 876 q 821 746 821 793 q 803 652 821 693 q 756 581 786 611 q 685 529 725 550 q 600 497 646 508 l 600 472 q 690 413 656 456 q 725 292 725 369 q 699 178 725 231 q 628 85 674 125 q 519 23 582 46 q 381 0 456 0 l 3 0 l 3 175 m 275 175 l 394 175 q 508 208 463 175 q 553 304 553 242 q 523 378 553 356 q 442 400 493 400 l 322 400 l 275 175 m 360 575 l 479 575 q 594 608 551 575 q 636 704 636 640 q 607 774 636 750 q 526 797 578 797 l 407 797 l 360 575 z "},"C":{"ha":850,"x_min":29,"x_max":822,"o":"m 354 147 q 442 164 406 147 q 504 208 479 181 q 544 270 529 235 q 567 342 558 306 l 572 367 l 756 367 l 750 342 q 697 184 731 251 q 613 72 664 117 q 490 3 561 26 q 324 -19 419 -19 q 204 0 258 -19 q 111 57 150 19 q 51 148 72 94 q 29 271 29 201 q 32 321 29 296 q 42 378 35 346 l 88 594 q 240 894 131 796 q 526 992 350 992 q 651 969 596 992 q 744 909 706 947 q 802 819 782 871 q 822 710 822 768 q 819 671 822 690 q 813 631 817 651 l 807 606 l 624 606 l 629 631 q 638 694 638 664 q 606 787 638 749 q 497 825 575 825 q 414 808 451 825 q 349 760 376 790 q 302 691 321 731 q 274 608 283 651 l 222 364 q 215 323 218 343 q 213 285 213 303 q 245 185 213 222 q 354 147 278 147 z "},"D":{"ha":850,"x_min":3,"x_max":808,"o":"m 143 972 l 511 972 q 731 901 653 972 q 808 711 808 829 q 806 671 808 692 q 799 628 803 650 l 738 336 q 685 184 718 247 q 599 80 651 121 q 476 19 547 39 q 310 0 404 0 l 3 0 l 3 175 l 103 175 l 235 797 l 143 797 l 143 972 m 347 175 q 491 220 443 175 q 558 361 539 265 l 615 628 q 620 653 618 639 q 622 681 622 668 q 588 767 622 738 q 479 797 553 797 l 418 797 l 286 175 l 347 175 z "},"E":{"ha":850,"x_min":25,"x_max":804,"o":"m 25 17 l 228 972 l 804 972 l 804 797 l 374 797 l 326 575 l 703 575 l 703 400 l 289 400 l 242 175 l 651 175 l 651 0 l 25 0 l 25 17 z "},"F":{"ha":850,"x_min":22,"x_max":814,"o":"m 229 972 l 814 972 l 814 797 l 375 797 l 328 575 l 721 575 l 721 400 l 290 400 l 206 0 l 22 0 l 229 972 z "},"G":{"ha":850,"x_min":28,"x_max":825,"o":"m 350 492 l 779 492 l 779 475 l 679 0 l 513 0 l 536 108 l 511 108 q 428 17 483 54 q 278 -19 372 -19 q 178 -2 224 -19 q 99 50 132 15 q 47 135 65 85 q 28 253 28 186 q 42 372 28 307 l 90 600 q 244 897 133 801 q 531 992 354 992 q 655 970 600 992 q 747 911 710 949 q 805 824 785 874 q 825 719 825 775 q 822 678 825 700 q 815 639 819 657 l 811 622 l 628 622 l 632 639 q 638 668 636 656 q 639 693 639 681 q 603 784 639 751 q 497 817 567 817 q 424 804 458 817 q 359 765 389 792 q 307 694 329 738 q 271 586 285 650 l 226 381 q 219 339 221 356 q 218 306 218 322 q 257 193 218 231 q 363 156 296 156 q 497 199 444 156 q 564 317 549 243 l 350 317 l 350 492 z "},"H":{"ha":850,"x_min":0,"x_max":850,"o":"m 206 972 l 389 972 l 304 575 l 582 575 l 667 972 l 850 972 l 643 0 l 460 0 l 544 400 l 267 400 l 182 0 l 0 0 l 206 972 z "},"I":{"ha":850,"x_min":42,"x_max":807,"o":"m 174 972 l 807 972 l 807 797 l 582 797 l 450 175 l 675 175 l 675 0 l 42 0 l 42 175 l 267 175 l 399 797 l 174 797 l 174 972 z "},"J":{"ha":850,"x_min":32,"x_max":863,"o":"m 661 292 q 613 151 643 210 q 539 54 583 92 q 435 -1 494 17 q 299 -19 375 -19 q 192 -3 240 -19 q 108 46 143 14 q 52 124 72 78 q 32 232 32 171 q 42 318 32 275 l 56 383 l 239 383 l 219 292 q 215 251 215 272 q 243 178 215 204 q 324 153 271 153 q 424 189 383 153 q 478 292 464 225 l 586 800 l 482 800 l 482 972 l 863 972 l 863 800 l 769 800 l 661 292 z "},"K":{"ha":850,"x_min":-6,"x_max":861,"o":"m 178 0 l -6 0 l 201 972 l 385 972 l 300 574 l 333 574 l 647 972 l 861 972 l 861 956 l 492 494 l 492 469 l 725 8 l 725 0 l 522 0 l 319 399 l 261 399 l 178 0 z "},"L":{"ha":850,"x_min":21,"x_max":660,"o":"m 21 17 l 224 972 l 407 972 l 238 175 l 660 175 l 660 0 l 21 0 l 21 17 z "},"M":{"ha":850,"x_min":-47,"x_max":897,"o":"m 158 972 l 456 972 l 361 275 l 328 117 l 361 117 l 397 283 l 592 972 l 897 972 l 690 0 l 532 0 l 668 639 l 731 856 l 697 856 l 449 0 l 200 0 l 310 856 l 276 856 l 249 647 l 110 0 l -47 0 l 158 972 z "},"N":{"ha":850,"x_min":-10,"x_max":860,"o":"m 472 92 l 497 92 l 685 972 l 860 972 l 653 0 l 311 0 l 376 881 l 351 881 l 164 0 l -10 0 l 196 972 l 538 972 l 472 92 z "},"O":{"ha":850,"x_min":35,"x_max":817,"o":"m 90 594 q 234 896 133 800 q 511 992 335 992 q 642 969 585 992 q 738 905 699 946 q 797 808 776 864 q 817 689 817 753 q 815 642 817 665 q 807 594 813 618 l 761 378 q 617 76 718 172 q 340 -19 517 -19 q 210 3 267 -19 q 114 67 153 26 q 55 163 75 108 q 35 283 35 218 q 37 331 35 307 q 44 378 39 354 l 90 594 m 357 147 q 440 165 404 147 q 503 211 476 182 q 548 281 531 240 q 575 367 565 321 l 626 606 q 633 644 631 628 q 635 675 635 660 q 598 785 635 746 q 494 825 561 825 q 411 808 447 825 q 348 761 375 790 q 303 692 321 732 q 276 606 286 651 l 225 367 q 217 297 217 329 q 253 187 217 226 q 357 147 290 147 z "},"P":{"ha":850,"x_min":0,"x_max":819,"o":"m 260 367 l 182 0 l 0 0 l 206 972 l 553 972 q 663 953 614 972 q 747 899 713 933 q 801 817 782 864 q 819 714 819 769 q 793 572 819 636 q 718 463 767 508 q 601 392 669 417 q 450 367 533 367 l 260 367 m 297 542 l 467 542 q 585 583 538 542 q 632 692 632 625 q 599 770 632 743 q 514 797 567 797 l 351 797 l 297 542 z "},"Q":{"ha":850,"x_min":35,"x_max":817,"o":"m 90 594 q 234 896 133 800 q 511 992 335 992 q 642 969 585 992 q 738 905 699 946 q 797 808 776 864 q 817 689 817 753 q 815 642 817 665 q 807 594 813 618 l 761 378 q 629 89 721 185 q 382 -18 538 -7 l 378 -36 q 376 -49 376 -43 q 407 -75 376 -75 l 485 -75 l 485 -242 l 319 -242 q 225 -209 261 -242 q 189 -125 189 -176 q 190 -104 189 -114 q 194 -83 192 -94 l 214 1 q 81 108 126 33 q 35 283 35 183 q 37 331 35 307 q 44 378 39 354 l 90 594 m 357 147 q 440 165 404 147 q 503 211 476 182 q 548 281 531 240 q 575 367 565 321 l 626 606 q 633 644 631 628 q 635 675 635 660 q 598 785 635 746 q 494 825 561 825 q 411 808 447 825 q 348 761 375 790 q 303 692 321 732 q 276 606 286 651 l 225 367 q 217 297 217 329 q 253 187 217 226 q 357 147 290 147 z "}}}
